<?xml version="1.0" encoding="UTF-8" standalone="no"?>
<!DOCTYPE svg PUBLIC "-//W3C//DTD SVG 1.1//EN"
 "http://www.w3.org/Graphics/SVG/1.1/DTD/svg11.dtd">
<!-- Generated by graphviz version 3.0.0 (20220226.1711)
 -->
<!-- Pages: 1 -->
<svg width="420pt" height="420pt"
 viewBox="0.00 0.00 432.00 431.85" xmlns="http://www.w3.org/2000/svg" xmlns:xlink="http://www.w3.org/1999/xlink">
<g id="graph0" class="graph" transform="scale(0.953478 0.953478) rotate(0) translate(4 436.34)">
<polygon fill="white" stroke="transparent" points="-4,4 -4,-436.34 436.49,-436.34 436.49,4 -4,4"/>
<!-- Ø -->
<g id="node1" class="node">
<title>Ø</title>
<ellipse fill="none" stroke="black" cx="242.72" cy="-20" rx="27" ry="18"/>
<text text-anchor="middle" x="242.72" y="-16.3" font-family="Times New Roman,serif" font-size="14.00">Ø</text>
</g>
<!-- q0 -->
<g id="node2" class="node">
<title>q0</title>
<ellipse fill="none" stroke="black" cx="89.72" cy="-329" rx="27" ry="18"/>
<text text-anchor="middle" x="89.72" y="-325.3" font-family="Times New Roman,serif" font-size="14.00">q0</text>
</g>
<!-- q0&#45;&gt;Ø -->
<g id="edge3" class="edge">
<title>q0&#45;&gt;Ø</title>
<path fill="none" stroke="black" d="M97.95,-311.49C123.17,-260.88 199.56,-107.61 230,-46.53"/>
<polygon fill="black" stroke="black" points="233.31,-47.73 234.64,-37.21 227.05,-44.6 233.31,-47.73"/>
<text text-anchor="middle" x="169.72" y="-178.3" font-family="Times New Roman,serif" font-size="14.00">b</text>
</g>
<!-- q1 -->
<g id="node3" class="node">
<title>q1</title>
<ellipse fill="none" stroke="black" cx="219.72" cy="-231" rx="27" ry="18"/>
<text text-anchor="middle" x="219.72" y="-227.3" font-family="Times New Roman,serif" font-size="14.00">q1</text>
</g>
<!-- q0&#45;&gt;q1 -->
<g id="edge2" class="edge">
<title>q0&#45;&gt;q1</title>
<path fill="none" stroke="black" d="M107.26,-315.05C129.55,-298.59 168.22,-270.04 193.89,-251.08"/>
<polygon fill="black" stroke="black" points="196.09,-253.8 202.05,-245.05 191.93,-248.17 196.09,-253.8"/>
<text text-anchor="middle" x="165.22" y="-276.3" font-family="Times New Roman,serif" font-size="14.00">a</text>
</g>
<!-- q1&#45;&gt;Ø -->
<g id="edge4" class="edge">
<title>q1&#45;&gt;Ø</title>
<path fill="none" stroke="black" d="M221.61,-212.9C225.59,-176.68 234.91,-91.98 239.73,-48.23"/>
<polygon fill="black" stroke="black" points="243.23,-48.37 240.85,-38.05 236.27,-47.6 243.23,-48.37"/>
<text text-anchor="middle" x="236.22" y="-122.3" font-family="Times New Roman,serif" font-size="14.00">a</text>
</g>
<!-- q2 -->
<g id="node4" class="node">
<title>q2</title>
<ellipse fill="none" stroke="black" cx="352.72" cy="-126" rx="20.27" ry="20.27"/>
<ellipse fill="none" stroke="black" cx="352.72" cy="-126" rx="24.3" ry="24.3"/>
<text text-anchor="middle" x="352.72" y="-122.3" font-family="Times New Roman,serif" font-size="14.00">q2</text>
</g>
<!-- q1&#45;&gt;q2 -->
<g id="edge5" class="edge">
<title>q1&#45;&gt;q2</title>
<path fill="none" stroke="black" d="M236.84,-216.75C259.38,-199.29 299.25,-168.41 325.83,-147.82"/>
<polygon fill="black" stroke="black" points="328.2,-150.42 333.96,-141.53 323.91,-144.89 328.2,-150.42"/>
<text text-anchor="middle" x="293.72" y="-178.3" font-family="Times New Roman,serif" font-size="14.00">b</text>
</g>
<!-- q2&#45;&gt;Ø -->
<g id="edge6" class="edge">
<title>q2&#45;&gt;Ø</title>
<path fill="none" stroke="black" d="M335.54,-108.75C316.57,-90.82 285.97,-61.89 265.14,-42.19"/>
<polygon fill="black" stroke="black" points="267.34,-39.46 257.67,-35.13 262.53,-44.55 267.34,-39.46"/>
<text text-anchor="middle" x="304.22" y="-66.3" font-family="Times New Roman,serif" font-size="14.00">a</text>
</g>
<!-- q2&#45;&gt;Ø -->
<g id="edge7" class="edge">
<title>q2&#45;&gt;Ø</title>
<path fill="none" stroke="black" d="M342.2,-104.16C334.9,-91.11 324.26,-74.55 311.72,-62.5 300.53,-51.74 286.07,-42.51 273.28,-35.5"/>
<polygon fill="black" stroke="black" points="274.81,-32.35 264.33,-30.8 271.55,-38.55 274.81,-32.35"/>
<text text-anchor="middle" x="327.72" y="-66.3" font-family="Times New Roman,serif" font-size="14.00">b</text>
</g>
<g id="node5" class="node">
<title></title>
</g>
<!-- &#45;&gt;q0 -->
<g id="edge1" class="edge">
<title>&#45;&gt;q0</title>
<path fill="none" stroke="black" d="M89.72,-393.82C89.72,-383.19 89.72,-369.31 89.72,-357.2"/>
<polygon fill="black" stroke="black" points="93.22,-357.15 89.72,-347.15 86.22,-357.15 93.22,-357.15"/>
</g>
</g>
</svg>
