<?xml version="1.0" encoding="UTF-8" standalone="no"?>
<!DOCTYPE svg PUBLIC "-//W3C//DTD SVG 1.1//EN"
 "http://www.w3.org/Graphics/SVG/1.1/DTD/svg11.dtd">
<!-- Generated by graphviz version 3.0.0 (20220226.1711)
 -->
<!-- Pages: 1 -->
<svg width="420pt" height="420pt"
 viewBox="0.00 0.00 431.57 432.00" xmlns="http://www.w3.org/2000/svg" xmlns:xlink="http://www.w3.org/1999/xlink">
<g id="graph0" class="graph" transform="scale(0.953605 0.953605) rotate(0) translate(4 436.43)">
<polygon fill="white" stroke="transparent" points="-4,4 -4,-436.43 436,-436.43 436,4 -4,4"/>
<!-- q0 -->
<g id="node1" class="node">
<title>q0</title>
<ellipse fill="none" stroke="black" cx="216" cy="-299" rx="27" ry="18"/>
<text text-anchor="middle" x="216" y="-295.3" font-family="Times New Roman,serif" font-size="14.00">q0</text>
</g>
<!-- q1 -->
<g id="node2" class="node">
<title>q1</title>
<ellipse fill="none" stroke="black" cx="216" cy="-172" rx="27" ry="18"/>
<text text-anchor="middle" x="216" y="-168.3" font-family="Times New Roman,serif" font-size="14.00">q1</text>
</g>
<!-- q0&#45;&gt;q1 -->
<g id="edge2" class="edge">
<title>q0&#45;&gt;q1</title>
<path fill="none" stroke="black" d="M216,-280.88C216,-260.15 216,-224.95 216,-200.42"/>
<polygon fill="black" stroke="black" points="219.5,-200.31 216,-190.31 212.5,-200.31 219.5,-200.31"/>
<text text-anchor="middle" x="219.5" y="-231.3" font-family="Times New Roman,serif" font-size="14.00">a</text>
</g>
<!-- q2 -->
<g id="node3" class="node">
<title>q2</title>
<ellipse fill="none" stroke="black" cx="216" cy="-35" rx="20.27" ry="20.27"/>
<ellipse fill="none" stroke="black" cx="216" cy="-35" rx="24.3" ry="24.3"/>
<text text-anchor="middle" x="216" y="-31.3" font-family="Times New Roman,serif" font-size="14.00">q2</text>
</g>
<!-- q1&#45;&gt;q2 -->
<g id="edge3" class="edge">
<title>q1&#45;&gt;q2</title>
<path fill="none" stroke="black" d="M216,-153.9C216,-132.73 216,-96.19 216,-69.39"/>
<polygon fill="black" stroke="black" points="219.5,-69.29 216,-59.29 212.5,-69.29 219.5,-69.29"/>
<text text-anchor="middle" x="220" y="-104.3" font-family="Times New Roman,serif" font-size="14.00">b</text>
</g>
<g id="node4" class="node">
<title></title>
</g>
<!-- &#45;&gt;q0 -->
<g id="edge1" class="edge">
<title>&#45;&gt;q0</title>
<path fill="none" stroke="black" d="M216,-387.66C216,-371.22 216,-346.28 216,-327.19"/>
<polygon fill="black" stroke="black" points="219.5,-327.02 216,-317.02 212.5,-327.02 219.5,-327.02"/>
</g>
</g>
</svg>
