<?xml version="1.0" encoding="UTF-8" standalone="no"?>
<!DOCTYPE svg PUBLIC "-//W3C//DTD SVG 1.1//EN"
 "http://www.w3.org/Graphics/SVG/1.1/DTD/svg11.dtd">
<!-- Generated by graphviz version 3.0.0 (20220226.1711)
 -->
<!-- Pages: 1 -->
<svg width="157pt" height="143pt"
 viewBox="0.00 0.00 157.15 143.30" xmlns="http://www.w3.org/2000/svg" xmlns:xlink="http://www.w3.org/1999/xlink">
<g id="graph0" class="graph" transform="scale(1 1) rotate(0) translate(4 139.3)">
<polygon fill="white" stroke="transparent" points="-4,4 -4,-139.3 153.15,-139.3 153.15,4 -4,4"/>
<!-- q2 -->
<g id="node1" class="node">
<title>q2</title>
<ellipse fill="none" stroke="black" cx="24.15" cy="-24.15" rx="20.27" ry="20.27"/>
<ellipse fill="none" stroke="black" cx="24.15" cy="-24.15" rx="24.3" ry="24.3"/>
<text text-anchor="middle" x="24.15" y="-20.45" font-family="Times New Roman,serif" font-size="14.00">q2</text>
</g>
<!-- q1 -->
<g id="node2" class="node">
<title>q1</title>
<ellipse fill="none" stroke="black" cx="50.15" cy="-117.3" rx="27" ry="18"/>
<text text-anchor="middle" x="50.15" y="-113.6" font-family="Times New Roman,serif" font-size="14.00">q1</text>
</g>
<!-- q1&#45;&gt;q2 -->
<g id="edge5" class="edge">
<title>q1&#45;&gt;q2</title>
<path fill="none" stroke="black" d="M38.7,-100.65C35.03,-94.85 31.34,-88.03 29.15,-81.3 26.82,-74.13 25.43,-66.2 24.64,-58.6"/>
<polygon fill="black" stroke="black" points="28.13,-58.28 23.89,-48.57 21.15,-58.8 28.13,-58.28"/>
<text text-anchor="middle" x="33.15" y="-70.1" font-family="Times New Roman,serif" font-size="14.00">b</text>
</g>
<!-- q0 -->
<g id="node3" class="node">
<title>q0</title>
<ellipse fill="none" stroke="black" cx="93.15" cy="-24.15" rx="27" ry="18"/>
<text text-anchor="middle" x="93.15" y="-20.45" font-family="Times New Roman,serif" font-size="14.00">q0</text>
</g>
<!-- q1&#45;&gt;q0 -->
<g id="edge4" class="edge">
<title>q1&#45;&gt;q0</title>
<path fill="none" stroke="black" d="M52.49,-99.05C54.27,-89.13 57.27,-76.63 62.15,-66.3 65.17,-59.88 69.3,-53.49 73.55,-47.73"/>
<polygon fill="black" stroke="black" points="76.35,-49.84 79.76,-39.81 70.84,-45.52 76.35,-49.84"/>
<text text-anchor="middle" x="65.65" y="-70.1" font-family="Times New Roman,serif" font-size="14.00">a</text>
</g>
<!-- q0&#45;&gt;q1 -->
<g id="edge3" class="edge">
<title>q0&#45;&gt;q1</title>
<path fill="none" stroke="black" d="M86.41,-42.04C81.81,-53.28 75.43,-68.32 69.15,-81.3 67.6,-84.51 65.9,-87.84 64.18,-91.12"/>
<polygon fill="black" stroke="black" points="61.01,-89.61 59.36,-100.08 67.18,-92.93 61.01,-89.61"/>
<text text-anchor="middle" x="79.15" y="-70.1" font-family="Times New Roman,serif" font-size="14.00">b</text>
</g>
<!-- q0&#45;&gt;q0 -->
<g id="edge2" class="edge">
<title>q0&#45;&gt;q0</title>
<path fill="none" stroke="black" d="M116.76,-32.93C128.12,-34.01 138.15,-31.09 138.15,-24.15 138.15,-19.49 133.62,-16.64 127.21,-15.6"/>
<polygon fill="black" stroke="black" points="126.84,-12.09 116.76,-15.37 126.68,-19.09 126.84,-12.09"/>
<text text-anchor="middle" x="141.65" y="-20.45" font-family="Times New Roman,serif" font-size="14.00">a</text>
</g>
<g id="node4" class="node">
<title></title>
</g>
<!-- &#45;&gt;q0 -->
<g id="edge1" class="edge">
<title>&#45;&gt;q0</title>
<path fill="none" stroke="black" d="M116.69,-99.15C112.45,-85.83 106.5,-67.11 101.64,-51.83"/>
<polygon fill="black" stroke="black" points="104.85,-50.38 98.48,-41.91 98.18,-52.5 104.85,-50.38"/>
</g>
</g>
</svg>
